# xmcd
#
# Track frame offsets:
#	150
#	30895
#	48574
#	71893
#	81057
#	96929
#	113719
#	146113
#
# Disc length: 2256 seconds
#
# Revision: 1
# Processed by: cddbd v1.4PL0 Copyright (c) Steve Scherf et al.
# Submitted via: EasyCDDAExtractor 6.0.0.1
#
DISCID=6908ce08
DTITLE=TEXACO - Around The Blues
DYEAR=1997
DGENRE=Blues
TTITLE0=Help me
TTITLE1=Don't lose the beat
TTITLE2=I'm left high and dry
TTITLE3=Need you go yet - part 1
TTITLE4=Need you go yet - part 2
TTITLE5=Saint Pompon
TTITLE6=Never Find my girl
TTITLE7=Everybody knows
EXTD=
EXTT0=
EXTT1=
EXTT2=
EXTT3=
EXTT4=
EXTT5=
EXTT6=
EXTT7=
PLAYORDER=
